<?xml version="1.0" encoding="utf-8"?>
<!-- Generator: Adobe Illustrator 16.0.0, SVG Export Plug-In . SVG Version: 6.00 Build 0)  -->
<!DOCTYPE svg PUBLIC "-//W3C//DTD SVG 1.1//EN" "http://www.w3.org/Graphics/SVG/1.1/DTD/svg11.dtd">
<svg version="1.1" id="Layer_1" xmlns="http://www.w3.org/2000/svg" xmlns:xlink="http://www.w3.org/1999/xlink" x="0px" y="0px"
	 width="311.811px" height="311.811px" viewBox="0 0 311.811 311.811" enable-background="new 0 0 311.811 311.811"
	 xml:space="preserve">
<path opacity="0.8" fill="#118040" d="M99.112,63.981c0,8.504-6.894,15.399-15.399,15.399H21.781
	c-8.504,0-15.399-6.895-15.399-15.399V26.966c0-8.505,6.895-15.399,15.399-15.399h61.933c8.505,0,15.399,6.894,15.399,15.399V63.981
	z"/>
<path opacity="0.8" fill="#7599C1" d="M201.772,63.981c0,8.504-6.895,15.399-15.399,15.399H124.44
	c-8.505,0-15.399-6.895-15.399-15.399V26.966c0-8.505,6.894-15.399,15.399-15.399h61.933c8.504,0,15.399,6.894,15.399,15.399V63.981
	z"/>
<path opacity="0.8" fill="#1A4D66" d="M304.432,63.981c0,8.504-6.894,15.399-15.399,15.399H227.1
	c-8.504,0-15.399-6.895-15.399-15.399V26.966c0-8.505,6.895-15.399,15.399-15.399h61.933c8.506,0,15.399,6.894,15.399,15.399V63.981
	z"/>
<path opacity="0.8" fill="#118040" d="M211.701,283.981c0,8.505,6.894,15.399,15.399,15.399h61.932
	c8.505,0,15.399-6.895,15.399-15.399v-37.016c0-8.505-6.895-15.399-15.399-15.399h-61.932c-8.505,0-15.399,6.895-15.399,15.399
	V283.981z"/>
<path opacity="0.8" fill="#7599C1" d="M109.042,283.981c0,8.505,6.895,15.399,15.399,15.399h61.933
	c8.505,0,15.399-6.895,15.399-15.399v-37.016c0-8.505-6.894-15.399-15.399-15.399H124.44c-8.504,0-15.399,6.895-15.399,15.399
	V283.981z"/>
<path opacity="0.8" fill="#1A4D66" d="M6.382,283.981c0,8.505,6.894,15.399,15.399,15.399h61.933
	c8.504,0,15.399-6.895,15.399-15.399v-37.016c0-8.505-6.895-15.399-15.399-15.399H21.781c-8.506,0-15.399,6.895-15.399,15.399
	V283.981z"/>
<path opacity="0.8" fill="#7599C1" d="M99.112,140.976c0,8.505-6.894,15.399-15.399,15.399H21.781
	c-8.504,0-15.399-6.895-15.399-15.399V103.96c0-8.505,6.895-15.399,15.399-15.399h61.933c8.505,0,15.399,6.894,15.399,15.399
	V140.976z"/>
<path opacity="0.8" fill="#1A4D66" d="M201.772,140.976c0,8.505-6.895,15.399-15.399,15.399H124.44
	c-8.505,0-15.399-6.895-15.399-15.399V103.96c0-8.505,6.894-15.399,15.399-15.399h61.933c8.504,0,15.399,6.894,15.399,15.399
	V140.976z"/>
<path opacity="0.8" fill="#7599C1" d="M304.432,140.976c0,8.505-6.894,15.399-15.399,15.399H227.1
	c-8.504,0-15.399-6.895-15.399-15.399V103.96c0-8.505,6.895-15.399,15.399-15.399h61.933c8.506,0,15.399,6.894,15.399,15.399
	V140.976z"/>
<g opacity="0.8">
	<path fill="#FFFFFF" d="M78.529,255.811c-1.045-0.198-2.131-0.185-3.199-0.26c-0.683-0.047-1.083,0.298-1.207,0.947
		c-0.104,0.551-0.162,1.112-0.261,1.817c-0.158-0.363-0.266-0.596-0.359-0.832c-1.269-3.199-2.699-6.317-4.476-9.272
		c-0.703-1.167-1.583-1.914-3.052-1.902c-0.652,0.006-1.31-0.181-1.996-0.199c-2.782-0.071-5.56-0.359-8.341-0.393
		c-1.267-0.016-2.535-0.016-3.803-0.004c-1.268-0.012-2.536-0.012-3.804,0.004c-2.781,0.033-5.559,0.321-8.34,0.393
		c-0.686,0.019-1.343,0.205-1.996,0.199c-1.469-0.012-2.35,0.735-3.053,1.902c-1.777,2.955-3.206,6.073-4.475,9.272
		c-0.094,0.236-0.202,0.469-0.36,0.832c-0.099-0.705-0.156-1.267-0.26-1.817c-0.123-0.649-0.524-0.994-1.207-0.947
		c-1.068,0.075-2.154,0.062-3.199,0.26c-1.301,0.246-2.131,2.521-1.35,3.589c0.192,0.262,0.602,0.462,0.935,0.504
		c1.02,0.124,2.05,0.159,3.078,0.229c0.213,0.014,0.426,0.026,0.629,0.04c0.19,0.782-1.516,0.876-0.651,1.723
		c-0.18,0.304-0.396,0.522-0.44,0.772c-0.145,0.811-0.271,1.628-0.321,2.448c-0.094,1.527-0.213,3.063-0.169,4.591
		c0.09,3.177,0.197,6.356,0.457,9.522c0.167,2.035,0.203,2.03,2.221,2.042c0.351,0.001,0.702-0.016,1.052-0.028
		c0.377-0.013,0.769,0.071,0.952-0.451c0.048-0.141,0.451-0.214,0.694-0.22c1.886-0.051,3.772-0.107,5.658-0.108
		c4.417-0.001,8.833,0.001,13.25,0.004l0,0c0.232,0,0.466,0,0.698,0c0.233,0,0.465,0,0.699,0l0,0
		c4.416-0.003,8.833-0.005,13.249-0.004c1.886,0.001,3.772,0.058,5.658,0.108c0.243,0.006,0.646,0.079,0.694,0.22
		c0.183,0.522,0.575,0.438,0.952,0.451c0.35,0.013,0.702,0.029,1.052,0.028c2.018-0.012,2.054-0.007,2.221-2.042
		c0.26-3.166,0.367-6.346,0.458-9.522c0.043-1.527-0.076-3.063-0.169-4.591c-0.05-0.82-0.177-1.638-0.321-2.448
		c-0.043-0.25-0.26-0.469-0.44-0.772c0.866-0.847-0.84-0.94-0.65-1.723c0.203-0.014,0.417-0.026,0.63-0.04
		c1.026-0.07,2.058-0.105,3.077-0.229c0.333-0.042,0.743-0.242,0.935-0.504C80.661,258.331,79.83,256.057,78.529,255.811z
		 M32.137,258.354c0.021-0.388,0.091-0.788,0.225-1.151c0.971-2.624,1.953-5.243,2.968-7.85c0.082-0.212,0.425-0.434,0.664-0.456
		c1.396-0.126,2.797-0.249,4.198-0.275c4.113-0.07,8.228-0.163,12.343-0.182v0.012c3.648,0.029,7.297,0.106,10.945,0.17
		c1.401,0.026,2.802,0.149,4.199,0.275c0.24,0.022,0.581,0.244,0.664,0.456c1.015,2.606,1.997,5.226,2.967,7.85
		c0.134,0.363,0.205,0.764,0.225,1.151c0.049,0.935-0.506,1.331-1.417,1.157c-1.133-0.215-2.278-0.457-3.425-0.503
		c-3.592-0.141-7.187-0.197-10.78-0.283c-0.847-0.02-1.696-0.05-2.542-0.025c-0.279,0.009-0.558,0.02-0.836,0.028v0.048
		c-0.744-0.026-1.489-0.053-2.234-0.076c-0.845-0.024-1.694,0.006-2.541,0.025c-3.594,0.086-7.188,0.143-10.78,0.283
		c-1.147,0.046-2.292,0.288-3.426,0.503C32.643,259.685,32.088,259.288,32.137,258.354z M63.883,259.548
		c-0.002,0.054-0.005,0.107-0.007,0.159c-1.795-0.069-3.592-0.138-5.387-0.209c-0.001-0.078-0.003-0.156-0.004-0.235
		C60.284,259.358,62.083,259.452,63.883,259.548z M52.546,259.552c-0.001,0.021-0.001,0.04-0.001,0.06c-0.003,0-0.007,0-0.011,0
		c-0.466,0-0.931,0-1.397,0c-0.004,0-0.008,0-0.012,0c0-0.02,0-0.039,0-0.06c0.004,0,0.008,0,0.012,0c0.466,0,0.931,0,1.397,0
		C52.539,259.552,52.542,259.552,52.546,259.552z M45.188,259.263c-0.001,0.079-0.002,0.157-0.003,0.235
		c-1.795,0.071-3.592,0.14-5.388,0.209c-0.002-0.052-0.005-0.105-0.007-0.159C41.589,259.452,43.388,259.358,45.188,259.263z
		 M36.371,277.774c-0.226,0.713-0.746,0.964-1.46,0.954c-1.313-0.019-2.626-0.014-3.94-0.021c-0.836-0.003-1.156-0.289-1.167-1.129
		c-0.007-0.545,0.028-1.096,0.103-1.636c0.097-0.699,0.438-0.977,1.16-0.987c1.051-0.012,2.102-0.004,3.152-0.004
		c0.959,0,1.918,0,3.038,0C36.941,275.961,36.658,276.869,36.371,277.774z M37.345,269.857c-1.511-0.065-3.023-0.114-4.529-0.237
		c-1.214-0.101-2.419-0.304-3.751-0.479c0.116-1.167,0.185-2.192,0.331-3.207c0.104-0.726,0.335-0.859,1.029-0.718
		c2.075,0.422,4.152,0.832,6.22,1.291c1.14,0.253,2.261,0.593,3.389,0.894C39.474,269.45,38.947,269.925,37.345,269.857z
		 M52.535,273.143v-0.002c-4.14,0.031-8.293-0.124-12.505-0.495c0.76-1.578,1.465-3.029,2.158-4.484
		c0.25-0.523,0.647-0.796,1.223-0.841c0.48-0.038,0.957-0.143,1.437-0.148c2.562-0.033,5.125-0.09,7.688-0.099v0.011
		c2.096,0.02,4.194,0.062,6.29,0.088c0.479,0.006,0.958,0.11,1.438,0.148c0.576,0.045,0.973,0.317,1.223,0.841
		c0.693,1.455,1.397,2.906,2.158,4.484C59.904,272.974,56.212,273.134,52.535,273.143z M72.701,278.708
		c-1.314,0.007-2.627,0.002-3.94,0.021c-0.713,0.01-1.234-0.241-1.46-0.954c-0.287-0.905-0.57-1.813-0.886-2.822
		c1.12,0,2.078,0,3.038,0c1.051,0,2.102-0.008,3.153,0.004c0.722,0.011,1.062,0.288,1.159,0.987c0.075,0.54,0.11,1.091,0.103,1.636
		C73.856,278.419,73.537,278.705,72.701,278.708z M70.856,269.62c-1.506,0.123-3.019,0.172-4.529,0.237
		c-1.603,0.067-2.13-0.407-2.688-2.456c1.128-0.301,2.25-0.641,3.39-0.894c2.067-0.459,4.145-0.869,6.221-1.291
		c0.692-0.142,0.924-0.008,1.028,0.718c0.146,1.015,0.214,2.04,0.331,3.207C73.275,269.316,72.07,269.52,70.856,269.62z"/>
	<path fill="#FFFFFF" d="M76.666,279.132c-0.152,0.405-0.217,0.812-0.287,1.218c-0.109,0.634-0.424,1.051-1.125,1.051
		c-1.069,0.001-2.137,0.001-3.205,0.001c0.037-0.073,0.075-0.146,0.112-0.219c-0.183-0.157-0.358-0.434-0.552-0.449
		c-0.694-0.055-1.396-0.021-2.172-0.021c0,1.536-0.02,2.98,0.008,4.424c0.014,0.722,0.52,1.217,1.281,1.232
		c1.554,0.031,3.11,0.035,4.663,0.001c0.826-0.017,1.269-0.533,1.275-1.354c0.006-0.768,0.001-1.535,0.001-2.303
		C76.666,281.52,76.666,280.326,76.666,279.132z"/>
	<path fill="#FFFFFF" d="M32.063,280.733c-0.195,0.016-0.369,0.292-0.553,0.449c0.038,0.072,0.074,0.146,0.111,0.219
		c-1.067,0-2.136,0-3.205-0.001c-0.7,0-1.016-0.417-1.124-1.051c-0.07-0.406-0.135-0.812-0.287-1.218c0,1.194,0,2.388,0,3.581
		c0,0.768-0.004,1.535,0.001,2.303c0.006,0.82,0.45,1.337,1.275,1.354c1.554,0.034,3.11,0.03,4.664-0.001
		c0.761-0.016,1.267-0.511,1.28-1.232c0.028-1.443,0.009-2.888,0.009-4.424C33.459,280.712,32.758,280.679,32.063,280.733z"/>
</g>
<g opacity="0.8">
	<path fill="#FFFFFF" d="M181.529,115.811c-1.045-0.198-2.131-0.185-3.199-0.26c-0.683-0.047-1.083,0.298-1.207,0.947
		c-0.104,0.551-0.162,1.112-0.261,1.817c-0.158-0.363-0.266-0.596-0.359-0.832c-1.269-3.199-2.699-6.317-4.476-9.272
		c-0.703-1.167-1.583-1.914-3.052-1.902c-0.652,0.006-1.31-0.181-1.996-0.199c-2.782-0.071-5.56-0.359-8.341-0.393
		c-1.267-0.016-2.535-0.016-3.803-0.004c-1.268-0.012-2.536-0.012-3.804,0.004c-2.781,0.033-5.559,0.321-8.34,0.393
		c-0.686,0.019-1.343,0.205-1.996,0.199c-1.469-0.012-2.35,0.735-3.053,1.902c-1.777,2.955-3.206,6.073-4.475,9.272
		c-0.094,0.236-0.202,0.469-0.36,0.832c-0.099-0.705-0.156-1.267-0.26-1.817c-0.123-0.649-0.524-0.994-1.207-0.947
		c-1.068,0.075-2.154,0.062-3.199,0.26c-1.301,0.246-2.131,2.521-1.35,3.589c0.192,0.262,0.602,0.462,0.935,0.504
		c1.02,0.124,2.05,0.159,3.078,0.229c0.213,0.014,0.426,0.026,0.629,0.04c0.19,0.782-1.516,0.876-0.651,1.723
		c-0.18,0.304-0.396,0.522-0.44,0.772c-0.145,0.811-0.271,1.628-0.321,2.448c-0.094,1.527-0.213,3.063-0.169,4.591
		c0.09,3.177,0.197,6.356,0.457,9.522c0.167,2.035,0.203,2.03,2.221,2.042c0.351,0.001,0.702-0.016,1.052-0.028
		c0.377-0.013,0.769,0.071,0.952-0.451c0.048-0.141,0.451-0.214,0.694-0.22c1.886-0.051,3.772-0.107,5.658-0.108
		c4.417-0.001,8.833,0.001,13.25,0.004l0,0c0.232,0,0.466,0,0.698,0c0.233,0,0.465,0,0.699,0l0,0
		c4.416-0.003,8.833-0.005,13.249-0.004c1.886,0.001,3.772,0.058,5.658,0.108c0.243,0.006,0.646,0.079,0.694,0.22
		c0.183,0.522,0.575,0.438,0.952,0.451c0.35,0.013,0.702,0.029,1.052,0.028c2.018-0.012,2.054-0.007,2.221-2.042
		c0.26-3.166,0.367-6.346,0.458-9.522c0.043-1.527-0.076-3.063-0.169-4.591c-0.05-0.82-0.177-1.638-0.321-2.448
		c-0.043-0.25-0.26-0.469-0.44-0.772c0.866-0.847-0.84-0.94-0.65-1.723c0.203-0.014,0.417-0.026,0.63-0.04
		c1.026-0.07,2.058-0.105,3.077-0.229c0.333-0.042,0.743-0.242,0.935-0.504C183.661,118.331,182.83,116.057,181.529,115.811z
		 M135.137,118.354c0.021-0.388,0.091-0.788,0.225-1.151c0.971-2.624,1.953-5.243,2.968-7.85c0.082-0.212,0.425-0.434,0.664-0.456
		c1.396-0.126,2.797-0.249,4.198-0.275c4.113-0.07,8.228-0.163,12.343-0.182v0.012c3.648,0.029,7.297,0.106,10.945,0.17
		c1.401,0.026,2.802,0.149,4.199,0.275c0.24,0.022,0.581,0.244,0.664,0.456c1.015,2.606,1.997,5.226,2.967,7.85
		c0.134,0.363,0.205,0.764,0.225,1.151c0.049,0.935-0.506,1.331-1.417,1.157c-1.133-0.215-2.278-0.457-3.425-0.503
		c-3.592-0.141-7.187-0.197-10.78-0.283c-0.847-0.02-1.696-0.05-2.542-0.025c-0.279,0.009-0.558,0.02-0.836,0.028v0.048
		c-0.744-0.026-1.489-0.053-2.234-0.076c-0.845-0.024-1.694,0.006-2.541,0.025c-3.594,0.086-7.188,0.143-10.78,0.283
		c-1.147,0.046-2.292,0.288-3.426,0.503C135.643,119.685,135.088,119.288,135.137,118.354z M166.883,119.548
		c-0.002,0.054-0.005,0.107-0.007,0.159c-1.795-0.069-3.592-0.138-5.387-0.209c-0.001-0.078-0.003-0.156-0.004-0.235
		C163.284,119.358,165.083,119.452,166.883,119.548z M155.546,119.552c-0.001,0.021-0.001,0.04-0.001,0.06c-0.003,0-0.007,0-0.011,0
		c-0.466,0-0.931,0-1.397,0c-0.004,0-0.008,0-0.012,0c0-0.02,0-0.039,0-0.06c0.004,0,0.008,0,0.012,0c0.466,0,0.931,0,1.397,0
		C155.539,119.552,155.542,119.552,155.546,119.552z M148.188,119.263c-0.001,0.079-0.002,0.157-0.003,0.235
		c-1.795,0.071-3.592,0.14-5.388,0.209c-0.002-0.052-0.005-0.105-0.007-0.159C144.589,119.452,146.388,119.358,148.188,119.263z
		 M139.371,137.774c-0.226,0.713-0.746,0.964-1.46,0.954c-1.313-0.019-2.626-0.014-3.94-0.021c-0.836-0.003-1.156-0.289-1.167-1.129
		c-0.007-0.545,0.028-1.096,0.103-1.636c0.097-0.699,0.438-0.977,1.16-0.987c1.051-0.012,2.102-0.004,3.152-0.004
		c0.959,0,1.918,0,3.038,0C139.941,135.961,139.658,136.869,139.371,137.774z M140.345,129.857
		c-1.511-0.065-3.023-0.114-4.529-0.237c-1.214-0.101-2.419-0.304-3.751-0.479c0.116-1.167,0.185-2.192,0.331-3.207
		c0.104-0.726,0.335-0.859,1.029-0.718c2.075,0.422,4.152,0.832,6.22,1.291c1.14,0.253,2.261,0.593,3.389,0.894
		C142.474,129.45,141.947,129.925,140.345,129.857z M155.535,133.143v-0.002c-4.14,0.031-8.293-0.124-12.505-0.495
		c0.76-1.578,1.465-3.029,2.158-4.484c0.25-0.523,0.647-0.796,1.223-0.841c0.48-0.038,0.957-0.143,1.437-0.148
		c2.562-0.033,5.125-0.09,7.688-0.099v0.011c2.096,0.02,4.194,0.062,6.29,0.088c0.479,0.006,0.958,0.11,1.438,0.148
		c0.576,0.045,0.973,0.317,1.223,0.841c0.693,1.455,1.397,2.906,2.158,4.484C162.904,132.974,159.212,133.134,155.535,133.143z
		 M175.701,138.708c-1.314,0.007-2.627,0.002-3.94,0.021c-0.713,0.01-1.234-0.241-1.46-0.954c-0.287-0.905-0.57-1.813-0.886-2.822
		c1.12,0,2.078,0,3.038,0c1.051,0,2.102-0.008,3.153,0.004c0.722,0.011,1.062,0.288,1.159,0.987c0.075,0.54,0.11,1.091,0.103,1.636
		C176.856,138.419,176.537,138.705,175.701,138.708z M173.856,129.62c-1.506,0.123-3.019,0.172-4.529,0.237
		c-1.603,0.067-2.13-0.407-2.688-2.456c1.128-0.301,2.25-0.641,3.39-0.894c2.067-0.459,4.145-0.869,6.221-1.291
		c0.692-0.142,0.924-0.008,1.028,0.718c0.146,1.015,0.214,2.04,0.331,3.207C176.275,129.316,175.07,129.52,173.856,129.62z"/>
	<path fill="#FFFFFF" d="M179.666,139.132c-0.152,0.405-0.217,0.812-0.287,1.218c-0.109,0.634-0.424,1.051-1.125,1.051
		c-1.069,0.001-2.137,0.001-3.205,0.001c0.037-0.073,0.075-0.146,0.112-0.219c-0.183-0.157-0.358-0.434-0.552-0.449
		c-0.694-0.055-1.396-0.021-2.172-0.021c0,1.536-0.02,2.98,0.008,4.424c0.014,0.722,0.52,1.217,1.281,1.232
		c1.554,0.031,3.11,0.035,4.663,0.001c0.826-0.017,1.269-0.533,1.275-1.354c0.006-0.768,0.001-1.535,0.001-2.303
		C179.666,141.52,179.666,140.326,179.666,139.132z"/>
	<path fill="#FFFFFF" d="M135.063,140.733c-0.195,0.016-0.369,0.292-0.553,0.449c0.038,0.072,0.074,0.146,0.111,0.219
		c-1.067,0-2.136,0-3.205-0.001c-0.7,0-1.016-0.417-1.124-1.051c-0.07-0.406-0.135-0.812-0.287-1.218c0,1.194,0,2.388,0,3.581
		c0,0.768-0.004,1.535,0.001,2.303c0.006,0.82,0.45,1.337,1.275,1.354c1.554,0.034,3.11,0.03,4.664-0.001
		c0.761-0.016,1.267-0.511,1.28-1.232c0.028-1.443,0.009-2.888,0.009-4.424C136.459,140.712,135.758,140.679,135.063,140.733z"/>
</g>
<g opacity="0.8">
	<path fill="#FFFFFF" d="M284.529,255.811c-1.045-0.198-2.131-0.185-3.198-0.26c-0.684-0.047-1.084,0.298-1.207,0.947
		c-0.104,0.551-0.162,1.112-0.261,1.817c-0.157-0.363-0.266-0.596-0.359-0.832c-1.269-3.199-2.698-6.317-4.476-9.272
		c-0.703-1.167-1.583-1.914-3.053-1.902c-0.652,0.006-1.31-0.181-1.996-0.199c-2.781-0.071-5.56-0.359-8.34-0.393
		c-1.268-0.016-2.535-0.016-3.804-0.004c-1.269-0.012-2.536-0.012-3.804,0.004c-2.781,0.033-5.559,0.321-8.34,0.393
		c-0.687,0.019-1.344,0.205-1.996,0.199c-1.47-0.012-2.35,0.735-3.053,1.902c-1.777,2.955-3.207,6.073-4.476,9.272
		c-0.094,0.236-0.202,0.469-0.36,0.832c-0.098-0.705-0.155-1.267-0.26-1.817c-0.123-0.649-0.523-0.994-1.207-0.947
		c-1.068,0.075-2.154,0.062-3.199,0.26c-1.301,0.246-2.131,2.521-1.35,3.589c0.192,0.262,0.602,0.462,0.936,0.504
		c1.02,0.124,2.051,0.159,3.078,0.229c0.213,0.014,0.426,0.026,0.629,0.04c0.19,0.782-1.516,0.876-0.65,1.723
		c-0.18,0.304-0.396,0.522-0.44,0.772c-0.145,0.811-0.271,1.628-0.321,2.448c-0.094,1.527-0.213,3.063-0.168,4.591
		c0.09,3.177,0.196,6.356,0.457,9.522c0.167,2.035,0.203,2.03,2.221,2.042c0.351,0.001,0.701-0.016,1.053-0.028
		c0.377-0.013,0.768,0.071,0.951-0.451c0.049-0.141,0.451-0.214,0.693-0.22c1.887-0.051,3.772-0.107,5.658-0.108
		c4.417-0.001,8.834,0.001,13.25,0.004l0,0c0.232,0,0.466,0,0.698,0c0.233,0,0.466,0,0.698,0l0,0
		c4.416-0.003,8.834-0.005,13.25-0.004c1.886,0.001,3.771,0.058,5.657,0.108c0.243,0.006,0.646,0.079,0.694,0.22
		c0.184,0.522,0.575,0.438,0.951,0.451c0.351,0.013,0.702,0.029,1.053,0.028c2.018-0.012,2.054-0.007,2.221-2.042
		c0.26-3.166,0.367-6.346,0.458-9.522c0.043-1.527-0.076-3.063-0.169-4.591c-0.051-0.82-0.178-1.638-0.322-2.448
		c-0.043-0.25-0.26-0.469-0.439-0.772c0.865-0.847-0.84-0.94-0.65-1.723c0.203-0.014,0.416-0.026,0.63-0.04
		c1.026-0.07,2.058-0.105,3.077-0.229c0.333-0.042,0.742-0.242,0.935-0.504C286.661,258.331,285.83,256.057,284.529,255.811z
		 M238.137,258.354c0.021-0.388,0.091-0.788,0.225-1.151c0.971-2.624,1.952-5.243,2.968-7.85c0.082-0.212,0.426-0.434,0.664-0.456
		c1.396-0.126,2.797-0.249,4.199-0.275c4.113-0.07,8.228-0.163,12.342-0.182v0.012c3.648,0.029,7.297,0.106,10.945,0.17
		c1.402,0.026,2.803,0.149,4.199,0.275c0.24,0.022,0.581,0.244,0.664,0.456c1.015,2.606,1.997,5.226,2.967,7.85
		c0.135,0.363,0.205,0.764,0.225,1.151c0.05,0.935-0.506,1.331-1.416,1.157c-1.134-0.215-2.278-0.457-3.426-0.503
		c-3.592-0.141-7.187-0.197-10.78-0.283c-0.847-0.02-1.696-0.05-2.542-0.025c-0.278,0.009-0.557,0.02-0.836,0.028v0.048
		c-0.744-0.026-1.488-0.053-2.233-0.076c-0.845-0.024-1.694,0.006-2.541,0.025c-3.594,0.086-7.188,0.143-10.78,0.283
		c-1.146,0.046-2.292,0.288-3.426,0.503C238.643,259.685,238.089,259.288,238.137,258.354z M269.883,259.548
		c-0.003,0.054-0.005,0.107-0.007,0.159c-1.796-0.069-3.592-0.138-5.388-0.209c-0.001-0.078-0.003-0.156-0.004-0.235
		C266.284,259.358,268.083,259.452,269.883,259.548z M258.546,259.552c0,0.021,0,0.04,0,0.06c-0.004,0-0.008,0-0.012,0
		c-0.465,0-0.931,0-1.396,0c-0.004,0-0.008,0-0.012,0c0-0.02,0-0.039,0-0.06c0.004,0,0.008,0,0.012,0c0.466,0,0.932,0,1.396,0
		C258.538,259.552,258.542,259.552,258.546,259.552z M251.188,259.263c-0.001,0.079-0.003,0.157-0.003,0.235
		c-1.796,0.071-3.592,0.14-5.389,0.209c-0.002-0.052-0.004-0.105-0.007-0.159C247.589,259.452,249.388,259.358,251.188,259.263z
		 M242.371,277.774c-0.226,0.713-0.746,0.964-1.46,0.954c-1.312-0.019-2.627-0.014-3.939-0.021
		c-0.837-0.003-1.156-0.289-1.167-1.129c-0.007-0.545,0.028-1.096,0.103-1.636c0.097-0.699,0.438-0.977,1.16-0.987
		c1.051-0.012,2.102-0.004,3.152-0.004c0.959,0,1.918,0,3.037,0C242.941,275.961,242.658,276.869,242.371,277.774z M243.345,269.857
		c-1.511-0.065-3.023-0.114-4.529-0.237c-1.213-0.101-2.419-0.304-3.751-0.479c0.116-1.167,0.185-2.192,0.331-3.207
		c0.104-0.726,0.334-0.859,1.028-0.718c2.075,0.422,4.152,0.832,6.22,1.291c1.141,0.253,2.262,0.593,3.39,0.894
		C245.474,269.45,244.947,269.925,243.345,269.857z M258.534,273.143v-0.002c-4.14,0.031-8.293-0.124-12.505-0.495
		c0.761-1.578,1.466-3.029,2.157-4.484c0.25-0.523,0.648-0.796,1.224-0.841c0.479-0.038,0.957-0.143,1.437-0.148
		c2.562-0.033,5.125-0.09,7.688-0.099v0.011c2.097,0.02,4.194,0.062,6.291,0.088c0.479,0.006,0.957,0.11,1.438,0.148
		c0.575,0.045,0.973,0.317,1.223,0.841c0.692,1.455,1.396,2.906,2.158,4.484C265.904,272.974,262.212,273.134,258.534,273.143z
		 M278.701,278.708c-1.314,0.007-2.627,0.002-3.94,0.021c-0.713,0.01-1.234-0.241-1.46-0.954c-0.287-0.905-0.57-1.813-0.886-2.822
		c1.119,0,2.078,0,3.037,0c1.051,0,2.102-0.008,3.152,0.004c0.723,0.011,1.062,0.288,1.16,0.987c0.074,0.54,0.109,1.091,0.102,1.636
		C279.856,278.419,279.537,278.705,278.701,278.708z M276.856,269.62c-1.507,0.123-3.02,0.172-4.529,0.237
		c-1.603,0.067-2.13-0.407-2.688-2.456c1.128-0.301,2.249-0.641,3.39-0.894c2.066-0.459,4.145-0.869,6.221-1.291
		c0.692-0.142,0.924-0.008,1.027,0.718c0.146,1.015,0.215,2.04,0.331,3.207C279.275,269.316,278.069,269.52,276.856,269.62z"/>
	<path fill="#FFFFFF" d="M282.665,279.132c-0.152,0.405-0.217,0.812-0.286,1.218c-0.108,0.634-0.424,1.051-1.124,1.051
		c-1.069,0.001-2.137,0.001-3.205,0.001c0.037-0.073,0.074-0.146,0.111-0.219c-0.184-0.157-0.357-0.434-0.553-0.449
		c-0.693-0.055-1.395-0.021-2.172-0.021c0,1.536-0.02,2.98,0.008,4.424c0.015,0.722,0.52,1.217,1.281,1.232
		c1.554,0.031,3.109,0.035,4.663,0.001c0.825-0.017,1.269-0.533,1.275-1.354c0.006-0.768,0.001-1.535,0.001-2.303
		C282.665,281.52,282.665,280.326,282.665,279.132z"/>
	<path fill="#FFFFFF" d="M238.063,280.733c-0.195,0.016-0.369,0.292-0.553,0.449c0.037,0.072,0.074,0.146,0.111,0.219
		c-1.068,0-2.137,0-3.205-0.001c-0.7,0-1.016-0.417-1.124-1.051c-0.069-0.406-0.135-0.812-0.287-1.218c0,1.194,0,2.388,0,3.581
		c0,0.768-0.005,1.535,0.001,2.303c0.007,0.82,0.45,1.337,1.275,1.354c1.555,0.034,3.11,0.03,4.664-0.001
		c0.761-0.016,1.267-0.511,1.28-1.232c0.028-1.443,0.009-2.888,0.009-4.424C239.459,280.712,238.758,280.679,238.063,280.733z"/>
</g>
<g opacity="0.8">
	<path fill="#FFFFFF" d="M183.529,255.811c-1.045-0.198-2.131-0.185-3.198-0.26c-0.684-0.047-1.084,0.298-1.207,0.947
		c-0.104,0.551-0.162,1.112-0.261,1.817c-0.157-0.363-0.266-0.596-0.359-0.832c-1.269-3.199-2.698-6.317-4.476-9.272
		c-0.703-1.167-1.583-1.914-3.053-1.902c-0.652,0.006-1.31-0.181-1.996-0.199c-2.781-0.071-5.56-0.359-8.34-0.393
		c-1.268-0.016-2.535-0.016-3.804-0.004c-1.269-0.012-2.536-0.012-3.804,0.004c-2.781,0.033-5.559,0.321-8.34,0.393
		c-0.687,0.019-1.344,0.205-1.996,0.199c-1.47-0.012-2.35,0.735-3.053,1.902c-1.777,2.955-3.207,6.073-4.476,9.272
		c-0.094,0.236-0.202,0.469-0.36,0.832c-0.098-0.705-0.155-1.267-0.26-1.817c-0.123-0.649-0.523-0.994-1.207-0.947
		c-1.068,0.075-2.154,0.062-3.199,0.26c-1.301,0.246-2.131,2.521-1.35,3.589c0.192,0.262,0.602,0.462,0.936,0.504
		c1.02,0.124,2.051,0.159,3.078,0.229c0.213,0.014,0.426,0.026,0.629,0.04c0.19,0.782-1.516,0.876-0.65,1.723
		c-0.18,0.304-0.396,0.522-0.44,0.772c-0.145,0.811-0.271,1.628-0.321,2.448c-0.094,1.527-0.213,3.063-0.168,4.591
		c0.09,3.177,0.196,6.356,0.457,9.522c0.167,2.035,0.203,2.03,2.221,2.042c0.351,0.001,0.701-0.016,1.053-0.028
		c0.377-0.013,0.768,0.071,0.951-0.451c0.049-0.141,0.451-0.214,0.693-0.22c1.887-0.051,3.772-0.107,5.658-0.108
		c4.417-0.001,8.834,0.001,13.25,0.004l0,0c0.232,0,0.466,0,0.698,0c0.233,0,0.466,0,0.698,0l0,0
		c4.416-0.003,8.834-0.005,13.25-0.004c1.886,0.001,3.771,0.058,5.657,0.108c0.243,0.006,0.646,0.079,0.694,0.22
		c0.184,0.522,0.575,0.438,0.951,0.451c0.351,0.013,0.702,0.029,1.053,0.028c2.018-0.012,2.054-0.007,2.221-2.042
		c0.26-3.166,0.367-6.346,0.458-9.522c0.043-1.527-0.076-3.063-0.169-4.591c-0.051-0.82-0.178-1.638-0.322-2.448
		c-0.043-0.25-0.26-0.469-0.439-0.772c0.865-0.847-0.84-0.94-0.65-1.723c0.203-0.014,0.416-0.026,0.63-0.04
		c1.026-0.07,2.058-0.105,3.077-0.229c0.333-0.042,0.742-0.242,0.935-0.504C185.661,258.331,184.83,256.057,183.529,255.811z
		 M137.137,258.354c0.021-0.388,0.091-0.788,0.225-1.151c0.971-2.624,1.952-5.243,2.968-7.85c0.082-0.212,0.426-0.434,0.664-0.456
		c1.396-0.126,2.797-0.249,4.199-0.275c4.113-0.07,8.228-0.163,12.342-0.182v0.012c3.648,0.029,7.297,0.106,10.945,0.17
		c1.402,0.026,2.803,0.149,4.199,0.275c0.24,0.022,0.581,0.244,0.664,0.456c1.015,2.606,1.997,5.226,2.967,7.85
		c0.135,0.363,0.205,0.764,0.225,1.151c0.05,0.935-0.506,1.331-1.416,1.157c-1.134-0.215-2.278-0.457-3.426-0.503
		c-3.592-0.141-7.187-0.197-10.78-0.283c-0.847-0.02-1.696-0.05-2.542-0.025c-0.278,0.009-0.557,0.02-0.836,0.028v0.048
		c-0.744-0.026-1.488-0.053-2.233-0.076c-0.845-0.024-1.694,0.006-2.541,0.025c-3.594,0.086-7.188,0.143-10.78,0.283
		c-1.146,0.046-2.292,0.288-3.426,0.503C137.643,259.685,137.089,259.288,137.137,258.354z M168.883,259.548
		c-0.003,0.054-0.005,0.107-0.007,0.159c-1.796-0.069-3.592-0.138-5.388-0.209c-0.001-0.078-0.003-0.156-0.004-0.235
		C165.284,259.358,167.083,259.452,168.883,259.548z M157.546,259.552c0,0.021,0,0.04,0,0.06c-0.004,0-0.008,0-0.012,0
		c-0.465,0-0.931,0-1.396,0c-0.004,0-0.008,0-0.012,0c0-0.02,0-0.039,0-0.06c0.004,0,0.008,0,0.012,0c0.466,0,0.932,0,1.396,0
		C157.538,259.552,157.542,259.552,157.546,259.552z M150.188,259.263c-0.001,0.079-0.003,0.157-0.003,0.235
		c-1.796,0.071-3.592,0.14-5.389,0.209c-0.002-0.052-0.004-0.105-0.007-0.159C146.589,259.452,148.388,259.358,150.188,259.263z
		 M141.371,277.774c-0.226,0.713-0.746,0.964-1.46,0.954c-1.312-0.019-2.627-0.014-3.939-0.021
		c-0.837-0.003-1.156-0.289-1.167-1.129c-0.007-0.545,0.028-1.096,0.103-1.636c0.097-0.699,0.438-0.977,1.16-0.987
		c1.051-0.012,2.102-0.004,3.152-0.004c0.959,0,1.918,0,3.037,0C141.941,275.961,141.658,276.869,141.371,277.774z M142.345,269.857
		c-1.511-0.065-3.023-0.114-4.529-0.237c-1.213-0.101-2.419-0.304-3.751-0.479c0.116-1.167,0.185-2.192,0.331-3.207
		c0.104-0.726,0.334-0.859,1.028-0.718c2.075,0.422,4.152,0.832,6.22,1.291c1.141,0.253,2.262,0.593,3.39,0.894
		C144.474,269.45,143.947,269.925,142.345,269.857z M157.534,273.143v-0.002c-4.14,0.031-8.293-0.124-12.505-0.495
		c0.761-1.578,1.466-3.029,2.157-4.484c0.25-0.523,0.648-0.796,1.224-0.841c0.479-0.038,0.957-0.143,1.437-0.148
		c2.562-0.033,5.125-0.09,7.688-0.099v0.011c2.097,0.02,4.194,0.062,6.291,0.088c0.479,0.006,0.957,0.11,1.438,0.148
		c0.575,0.045,0.973,0.317,1.223,0.841c0.692,1.455,1.396,2.906,2.158,4.484C164.904,272.974,161.212,273.134,157.534,273.143z
		 M177.701,278.708c-1.314,0.007-2.627,0.002-3.94,0.021c-0.713,0.01-1.234-0.241-1.46-0.954c-0.287-0.905-0.57-1.813-0.886-2.822
		c1.119,0,2.078,0,3.037,0c1.051,0,2.102-0.008,3.152,0.004c0.723,0.011,1.062,0.288,1.16,0.987c0.074,0.54,0.109,1.091,0.102,1.636
		C178.856,278.419,178.537,278.705,177.701,278.708z M175.856,269.62c-1.507,0.123-3.02,0.172-4.529,0.237
		c-1.603,0.067-2.13-0.407-2.688-2.456c1.128-0.301,2.249-0.641,3.39-0.894c2.066-0.459,4.145-0.869,6.221-1.291
		c0.692-0.142,0.924-0.008,1.027,0.718c0.146,1.015,0.215,2.04,0.331,3.207C178.275,269.316,177.069,269.52,175.856,269.62z"/>
	<path fill="#FFFFFF" d="M181.665,279.132c-0.152,0.405-0.217,0.812-0.286,1.218c-0.108,0.634-0.424,1.051-1.124,1.051
		c-1.069,0.001-2.137,0.001-3.205,0.001c0.037-0.073,0.074-0.146,0.111-0.219c-0.184-0.157-0.357-0.434-0.553-0.449
		c-0.693-0.055-1.395-0.021-2.172-0.021c0,1.536-0.02,2.98,0.008,4.424c0.015,0.722,0.52,1.217,1.281,1.232
		c1.554,0.031,3.109,0.035,4.663,0.001c0.825-0.017,1.269-0.533,1.275-1.354c0.006-0.768,0.001-1.535,0.001-2.303
		C181.665,281.52,181.665,280.326,181.665,279.132z"/>
	<path fill="#FFFFFF" d="M137.063,280.733c-0.195,0.016-0.369,0.292-0.553,0.449c0.037,0.072,0.074,0.146,0.111,0.219
		c-1.068,0-2.137,0-3.205-0.001c-0.7,0-1.016-0.417-1.124-1.051c-0.069-0.406-0.135-0.812-0.287-1.218c0,1.194,0,2.388,0,3.581
		c0,0.768-0.005,1.535,0.001,2.303c0.007,0.82,0.45,1.337,1.275,1.354c1.555,0.034,3.11,0.03,4.664-0.001
		c0.761-0.016,1.267-0.511,1.28-1.232c0.028-1.443,0.009-2.888,0.009-4.424C138.459,280.712,137.758,280.679,137.063,280.733z"/>
</g>
<g opacity="0.8">
	<path fill="#FFFFFF" d="M78.529,115.811c-1.045-0.198-2.131-0.185-3.199-0.26c-0.683-0.047-1.083,0.298-1.207,0.947
		c-0.104,0.551-0.162,1.112-0.261,1.817c-0.158-0.363-0.266-0.596-0.359-0.832c-1.269-3.199-2.699-6.317-4.476-9.272
		c-0.703-1.167-1.583-1.914-3.052-1.902c-0.652,0.006-1.31-0.181-1.996-0.199c-2.782-0.071-5.56-0.359-8.341-0.393
		c-1.267-0.016-2.535-0.016-3.803-0.004c-1.268-0.012-2.536-0.012-3.804,0.004c-2.781,0.033-5.559,0.321-8.34,0.393
		c-0.686,0.019-1.343,0.205-1.996,0.199c-1.469-0.012-2.35,0.735-3.053,1.902c-1.777,2.955-3.206,6.073-4.475,9.272
		c-0.094,0.236-0.202,0.469-0.36,0.832c-0.099-0.705-0.156-1.267-0.26-1.817c-0.123-0.649-0.524-0.994-1.207-0.947
		c-1.068,0.075-2.154,0.062-3.199,0.26c-1.301,0.246-2.131,2.521-1.35,3.589c0.192,0.262,0.602,0.462,0.935,0.504
		c1.02,0.124,2.05,0.159,3.078,0.229c0.213,0.014,0.426,0.026,0.629,0.04c0.19,0.782-1.516,0.876-0.651,1.723
		c-0.18,0.304-0.396,0.522-0.44,0.772c-0.145,0.811-0.271,1.628-0.321,2.448c-0.094,1.527-0.213,3.063-0.169,4.591
		c0.09,3.177,0.197,6.356,0.457,9.522c0.167,2.035,0.203,2.03,2.221,2.042c0.351,0.001,0.702-0.016,1.052-0.028
		c0.377-0.013,0.769,0.071,0.952-0.451c0.048-0.141,0.451-0.214,0.694-0.22c1.886-0.051,3.772-0.107,5.658-0.108
		c4.417-0.001,8.833,0.001,13.25,0.004l0,0c0.232,0,0.466,0,0.698,0c0.233,0,0.465,0,0.699,0l0,0
		c4.416-0.003,8.833-0.005,13.249-0.004c1.886,0.001,3.772,0.058,5.658,0.108c0.243,0.006,0.646,0.079,0.694,0.22
		c0.183,0.522,0.575,0.438,0.952,0.451c0.35,0.013,0.702,0.029,1.052,0.028c2.018-0.012,2.054-0.007,2.221-2.042
		c0.26-3.166,0.367-6.346,0.458-9.522c0.043-1.527-0.076-3.063-0.169-4.591c-0.05-0.82-0.177-1.638-0.321-2.448
		c-0.043-0.25-0.26-0.469-0.44-0.772c0.866-0.847-0.84-0.94-0.65-1.723c0.203-0.014,0.417-0.026,0.63-0.04
		c1.026-0.07,2.058-0.105,3.077-0.229c0.333-0.042,0.743-0.242,0.935-0.504C80.661,118.331,79.83,116.057,78.529,115.811z
		 M32.137,118.354c0.021-0.388,0.091-0.788,0.225-1.151c0.971-2.624,1.953-5.243,2.968-7.85c0.082-0.212,0.425-0.434,0.664-0.456
		c1.396-0.126,2.797-0.249,4.198-0.275c4.113-0.07,8.228-0.163,12.343-0.182v0.012c3.648,0.029,7.297,0.106,10.945,0.17
		c1.401,0.026,2.802,0.149,4.199,0.275c0.24,0.022,0.581,0.244,0.664,0.456c1.015,2.606,1.997,5.226,2.967,7.85
		c0.134,0.363,0.205,0.764,0.225,1.151c0.049,0.935-0.506,1.331-1.417,1.157c-1.133-0.215-2.278-0.457-3.425-0.503
		c-3.592-0.141-7.187-0.197-10.78-0.283c-0.847-0.02-1.696-0.05-2.542-0.025c-0.279,0.009-0.558,0.02-0.836,0.028v0.048
		c-0.744-0.026-1.489-0.053-2.234-0.076c-0.845-0.024-1.694,0.006-2.541,0.025c-3.594,0.086-7.188,0.143-10.78,0.283
		c-1.147,0.046-2.292,0.288-3.426,0.503C32.643,119.685,32.088,119.288,32.137,118.354z M63.883,119.548
		c-0.002,0.054-0.005,0.107-0.007,0.159c-1.795-0.069-3.592-0.138-5.387-0.209c-0.001-0.078-0.003-0.156-0.004-0.235
		C60.284,119.358,62.083,119.452,63.883,119.548z M52.546,119.552c-0.001,0.021-0.001,0.04-0.001,0.06c-0.003,0-0.007,0-0.011,0
		c-0.466,0-0.931,0-1.397,0c-0.004,0-0.008,0-0.012,0c0-0.02,0-0.039,0-0.06c0.004,0,0.008,0,0.012,0c0.466,0,0.931,0,1.397,0
		C52.539,119.552,52.542,119.552,52.546,119.552z M45.188,119.263c-0.001,0.079-0.002,0.157-0.003,0.235
		c-1.795,0.071-3.592,0.14-5.388,0.209c-0.002-0.052-0.005-0.105-0.007-0.159C41.589,119.452,43.388,119.358,45.188,119.263z
		 M36.371,137.774c-0.226,0.713-0.746,0.964-1.46,0.954c-1.313-0.019-2.626-0.014-3.94-0.021c-0.836-0.003-1.156-0.289-1.167-1.129
		c-0.007-0.545,0.028-1.096,0.103-1.636c0.097-0.699,0.438-0.977,1.16-0.987c1.051-0.012,2.102-0.004,3.152-0.004
		c0.959,0,1.918,0,3.038,0C36.941,135.961,36.658,136.869,36.371,137.774z M37.345,129.857c-1.511-0.065-3.023-0.114-4.529-0.237
		c-1.214-0.101-2.419-0.304-3.751-0.479c0.116-1.167,0.185-2.192,0.331-3.207c0.104-0.726,0.335-0.859,1.029-0.718
		c2.075,0.422,4.152,0.832,6.22,1.291c1.14,0.253,2.261,0.593,3.389,0.894C39.474,129.45,38.947,129.925,37.345,129.857z
		 M52.535,133.143v-0.002c-4.14,0.031-8.293-0.124-12.505-0.495c0.76-1.578,1.465-3.029,2.158-4.484
		c0.25-0.523,0.647-0.796,1.223-0.841c0.48-0.038,0.957-0.143,1.437-0.148c2.562-0.033,5.125-0.09,7.688-0.099v0.011
		c2.096,0.02,4.194,0.062,6.29,0.088c0.479,0.006,0.958,0.11,1.438,0.148c0.576,0.045,0.973,0.317,1.223,0.841
		c0.693,1.455,1.397,2.906,2.158,4.484C59.904,132.974,56.212,133.134,52.535,133.143z M72.701,138.708
		c-1.314,0.007-2.627,0.002-3.94,0.021c-0.713,0.01-1.234-0.241-1.46-0.954c-0.287-0.905-0.57-1.813-0.886-2.822
		c1.12,0,2.078,0,3.038,0c1.051,0,2.102-0.008,3.153,0.004c0.722,0.011,1.062,0.288,1.159,0.987c0.075,0.54,0.11,1.091,0.103,1.636
		C73.856,138.419,73.537,138.705,72.701,138.708z M70.856,129.62c-1.506,0.123-3.019,0.172-4.529,0.237
		c-1.603,0.067-2.13-0.407-2.688-2.456c1.128-0.301,2.25-0.641,3.39-0.894c2.067-0.459,4.145-0.869,6.221-1.291
		c0.692-0.142,0.924-0.008,1.028,0.718c0.146,1.015,0.214,2.04,0.331,3.207C73.275,129.316,72.07,129.52,70.856,129.62z"/>
	<path fill="#FFFFFF" d="M76.666,139.132c-0.152,0.405-0.217,0.812-0.287,1.218c-0.109,0.634-0.424,1.051-1.125,1.051
		c-1.069,0.001-2.137,0.001-3.205,0.001c0.037-0.073,0.075-0.146,0.112-0.219c-0.183-0.157-0.358-0.434-0.552-0.449
		c-0.694-0.055-1.396-0.021-2.172-0.021c0,1.536-0.02,2.98,0.008,4.424c0.014,0.722,0.52,1.217,1.281,1.232
		c1.554,0.031,3.11,0.035,4.663,0.001c0.826-0.017,1.269-0.533,1.275-1.354c0.006-0.768,0.001-1.535,0.001-2.303
		C76.666,141.52,76.666,140.326,76.666,139.132z"/>
	<path fill="#FFFFFF" d="M32.063,140.733c-0.195,0.016-0.369,0.292-0.553,0.449c0.038,0.072,0.074,0.146,0.111,0.219
		c-1.067,0-2.136,0-3.205-0.001c-0.7,0-1.016-0.417-1.124-1.051c-0.07-0.406-0.135-0.812-0.287-1.218c0,1.194,0,2.388,0,3.581
		c0,0.768-0.004,1.535,0.001,2.303c0.006,0.82,0.45,1.337,1.275,1.354c1.554,0.034,3.11,0.03,4.664-0.001
		c0.761-0.016,1.267-0.511,1.28-1.232c0.028-1.443,0.009-2.888,0.009-4.424C33.459,140.712,32.758,140.679,32.063,140.733z"/>
</g>
<g opacity="0.8">
	<path fill="#FFFFFF" d="M284.529,115.811c-1.045-0.198-2.131-0.185-3.198-0.26c-0.684-0.047-1.084,0.298-1.207,0.947
		c-0.104,0.551-0.162,1.112-0.261,1.817c-0.157-0.363-0.266-0.596-0.359-0.832c-1.269-3.199-2.698-6.317-4.476-9.272
		c-0.703-1.167-1.583-1.914-3.053-1.902c-0.652,0.006-1.31-0.181-1.996-0.199c-2.781-0.071-5.56-0.359-8.34-0.393
		c-1.268-0.016-2.535-0.016-3.804-0.004c-1.269-0.012-2.536-0.012-3.804,0.004c-2.781,0.033-5.559,0.321-8.34,0.393
		c-0.687,0.019-1.344,0.205-1.996,0.199c-1.47-0.012-2.35,0.735-3.053,1.902c-1.777,2.955-3.207,6.073-4.476,9.272
		c-0.094,0.236-0.202,0.469-0.36,0.832c-0.098-0.705-0.155-1.267-0.26-1.817c-0.123-0.649-0.523-0.994-1.207-0.947
		c-1.068,0.075-2.154,0.062-3.199,0.26c-1.301,0.246-2.131,2.521-1.35,3.589c0.192,0.262,0.602,0.462,0.936,0.504
		c1.02,0.124,2.051,0.159,3.078,0.229c0.213,0.014,0.426,0.026,0.629,0.04c0.19,0.782-1.516,0.876-0.65,1.723
		c-0.18,0.304-0.396,0.522-0.44,0.772c-0.145,0.811-0.271,1.628-0.321,2.448c-0.094,1.527-0.213,3.063-0.168,4.591
		c0.09,3.177,0.196,6.356,0.457,9.522c0.167,2.035,0.203,2.03,2.221,2.042c0.351,0.001,0.701-0.016,1.053-0.028
		c0.377-0.013,0.768,0.071,0.951-0.451c0.049-0.141,0.451-0.214,0.693-0.22c1.887-0.051,3.772-0.107,5.658-0.108
		c4.417-0.001,8.834,0.001,13.25,0.004l0,0c0.232,0,0.466,0,0.698,0c0.233,0,0.466,0,0.698,0l0,0
		c4.416-0.003,8.834-0.005,13.25-0.004c1.886,0.001,3.771,0.058,5.657,0.108c0.243,0.006,0.646,0.079,0.694,0.22
		c0.184,0.522,0.575,0.438,0.951,0.451c0.351,0.013,0.702,0.029,1.053,0.028c2.018-0.012,2.054-0.007,2.221-2.042
		c0.26-3.166,0.367-6.346,0.458-9.522c0.043-1.527-0.076-3.063-0.169-4.591c-0.051-0.82-0.178-1.638-0.322-2.448
		c-0.043-0.25-0.26-0.469-0.439-0.772c0.865-0.847-0.84-0.94-0.65-1.723c0.203-0.014,0.416-0.026,0.63-0.04
		c1.026-0.07,2.058-0.105,3.077-0.229c0.333-0.042,0.742-0.242,0.935-0.504C286.661,118.331,285.83,116.057,284.529,115.811z
		 M238.137,118.354c0.021-0.388,0.091-0.788,0.225-1.151c0.971-2.624,1.952-5.243,2.968-7.85c0.082-0.212,0.426-0.434,0.664-0.456
		c1.396-0.126,2.797-0.249,4.199-0.275c4.113-0.07,8.228-0.163,12.342-0.182v0.012c3.648,0.029,7.297,0.106,10.945,0.17
		c1.402,0.026,2.803,0.149,4.199,0.275c0.24,0.022,0.581,0.244,0.664,0.456c1.015,2.606,1.997,5.226,2.967,7.85
		c0.135,0.363,0.205,0.764,0.225,1.151c0.05,0.935-0.506,1.331-1.416,1.157c-1.134-0.215-2.278-0.457-3.426-0.503
		c-3.592-0.141-7.187-0.197-10.78-0.283c-0.847-0.02-1.696-0.05-2.542-0.025c-0.278,0.009-0.557,0.02-0.836,0.028v0.048
		c-0.744-0.026-1.488-0.053-2.233-0.076c-0.845-0.024-1.694,0.006-2.541,0.025c-3.594,0.086-7.188,0.143-10.78,0.283
		c-1.146,0.046-2.292,0.288-3.426,0.503C238.643,119.685,238.089,119.288,238.137,118.354z M269.883,119.548
		c-0.003,0.054-0.005,0.107-0.007,0.159c-1.796-0.069-3.592-0.138-5.388-0.209c-0.001-0.078-0.003-0.156-0.004-0.235
		C266.284,119.358,268.083,119.452,269.883,119.548z M258.546,119.552c0,0.021,0,0.04,0,0.06c-0.004,0-0.008,0-0.012,0
		c-0.465,0-0.931,0-1.396,0c-0.004,0-0.008,0-0.012,0c0-0.02,0-0.039,0-0.06c0.004,0,0.008,0,0.012,0c0.466,0,0.932,0,1.396,0
		C258.538,119.552,258.542,119.552,258.546,119.552z M251.188,119.263c-0.001,0.079-0.003,0.157-0.003,0.235
		c-1.796,0.071-3.592,0.14-5.389,0.209c-0.002-0.052-0.004-0.105-0.007-0.159C247.589,119.452,249.388,119.358,251.188,119.263z
		 M242.371,137.774c-0.226,0.713-0.746,0.964-1.46,0.954c-1.312-0.019-2.627-0.014-3.939-0.021
		c-0.837-0.003-1.156-0.289-1.167-1.129c-0.007-0.545,0.028-1.096,0.103-1.636c0.097-0.699,0.438-0.977,1.16-0.987
		c1.051-0.012,2.102-0.004,3.152-0.004c0.959,0,1.918,0,3.037,0C242.941,135.961,242.658,136.869,242.371,137.774z M243.345,129.857
		c-1.511-0.065-3.023-0.114-4.529-0.237c-1.213-0.101-2.419-0.304-3.751-0.479c0.116-1.167,0.185-2.192,0.331-3.207
		c0.104-0.726,0.334-0.859,1.028-0.718c2.075,0.422,4.152,0.832,6.22,1.291c1.141,0.253,2.262,0.593,3.39,0.894
		C245.474,129.45,244.947,129.925,243.345,129.857z M258.534,133.143v-0.002c-4.14,0.031-8.293-0.124-12.505-0.495
		c0.761-1.578,1.466-3.029,2.157-4.484c0.25-0.523,0.648-0.796,1.224-0.841c0.479-0.038,0.957-0.143,1.437-0.148
		c2.562-0.033,5.125-0.09,7.688-0.099v0.011c2.097,0.02,4.194,0.062,6.291,0.088c0.479,0.006,0.957,0.11,1.438,0.148
		c0.575,0.045,0.973,0.317,1.223,0.841c0.692,1.455,1.396,2.906,2.158,4.484C265.904,132.974,262.212,133.134,258.534,133.143z
		 M278.701,138.708c-1.314,0.007-2.627,0.002-3.94,0.021c-0.713,0.01-1.234-0.241-1.46-0.954c-0.287-0.905-0.57-1.813-0.886-2.822
		c1.119,0,2.078,0,3.037,0c1.051,0,2.102-0.008,3.152,0.004c0.723,0.011,1.062,0.288,1.16,0.987c0.074,0.54,0.109,1.091,0.102,1.636
		C279.856,138.419,279.537,138.705,278.701,138.708z M276.856,129.62c-1.507,0.123-3.02,0.172-4.529,0.237
		c-1.603,0.067-2.13-0.407-2.688-2.456c1.128-0.301,2.249-0.641,3.39-0.894c2.066-0.459,4.145-0.869,6.221-1.291
		c0.692-0.142,0.924-0.008,1.027,0.718c0.146,1.015,0.215,2.04,0.331,3.207C279.275,129.316,278.069,129.52,276.856,129.62z"/>
	<path fill="#FFFFFF" d="M282.665,139.132c-0.152,0.405-0.217,0.812-0.286,1.218c-0.108,0.634-0.424,1.051-1.124,1.051
		c-1.069,0.001-2.137,0.001-3.205,0.001c0.037-0.073,0.074-0.146,0.111-0.219c-0.184-0.157-0.357-0.434-0.553-0.449
		c-0.693-0.055-1.395-0.021-2.172-0.021c0,1.536-0.02,2.98,0.008,4.424c0.015,0.722,0.52,1.217,1.281,1.232
		c1.554,0.031,3.109,0.035,4.663,0.001c0.825-0.017,1.269-0.533,1.275-1.354c0.006-0.768,0.001-1.535,0.001-2.303
		C282.665,141.52,282.665,140.326,282.665,139.132z"/>
	<path fill="#FFFFFF" d="M238.063,140.733c-0.195,0.016-0.369,0.292-0.553,0.449c0.037,0.072,0.074,0.146,0.111,0.219
		c-1.068,0-2.137,0-3.205-0.001c-0.7,0-1.016-0.417-1.124-1.051c-0.069-0.406-0.135-0.812-0.287-1.218c0,1.194,0,2.388,0,3.581
		c0,0.768-0.005,1.535,0.001,2.303c0.007,0.82,0.45,1.337,1.275,1.354c1.555,0.034,3.11,0.03,4.664-0.001
		c0.761-0.016,1.267-0.511,1.28-1.232c0.028-1.443,0.009-2.888,0.009-4.424C239.459,140.712,238.758,140.679,238.063,140.733z"/>
</g>
<g opacity="0.8">
	<path fill="#FFFFFF" d="M285.529,35.811c-1.045-0.198-2.131-0.185-3.198-0.26c-0.684-0.047-1.084,0.298-1.207,0.947
		c-0.104,0.551-0.162,1.112-0.261,1.817c-0.157-0.363-0.266-0.596-0.359-0.832c-1.269-3.199-2.698-6.317-4.476-9.272
		c-0.703-1.167-1.583-1.914-3.053-1.902c-0.652,0.006-1.31-0.181-1.996-0.199c-2.781-0.071-5.56-0.359-8.34-0.393
		c-1.268-0.016-2.535-0.016-3.804-0.004c-1.269-0.012-2.536-0.012-3.804,0.004c-2.781,0.033-5.559,0.321-8.34,0.393
		c-0.687,0.019-1.344,0.205-1.996,0.199c-1.47-0.012-2.35,0.735-3.053,1.902c-1.777,2.955-3.207,6.073-4.476,9.272
		c-0.094,0.236-0.202,0.469-0.36,0.832c-0.098-0.705-0.155-1.267-0.26-1.817c-0.123-0.649-0.523-0.994-1.207-0.947
		c-1.068,0.075-2.154,0.062-3.199,0.26c-1.301,0.246-2.131,2.521-1.35,3.589c0.192,0.262,0.602,0.462,0.936,0.504
		c1.02,0.124,2.051,0.159,3.078,0.229c0.213,0.014,0.426,0.026,0.629,0.04c0.19,0.782-1.516,0.876-0.65,1.723
		c-0.18,0.304-0.396,0.522-0.44,0.772c-0.145,0.811-0.271,1.628-0.321,2.448c-0.094,1.527-0.213,3.063-0.168,4.591
		c0.09,3.177,0.196,6.356,0.457,9.522c0.167,2.035,0.203,2.03,2.221,2.042c0.351,0.001,0.701-0.016,1.053-0.028
		c0.377-0.013,0.768,0.071,0.951-0.451c0.049-0.141,0.451-0.214,0.693-0.22c1.887-0.051,3.772-0.107,5.658-0.108
		c4.417-0.001,8.834,0.001,13.25,0.004l0,0c0.232,0,0.466,0,0.698,0c0.233,0,0.466,0,0.698,0l0,0
		c4.416-0.003,8.834-0.005,13.25-0.004c1.886,0.001,3.771,0.058,5.657,0.108c0.243,0.006,0.646,0.079,0.694,0.22
		c0.184,0.522,0.575,0.438,0.951,0.451c0.351,0.013,0.702,0.029,1.053,0.028c2.018-0.012,2.054-0.007,2.221-2.042
		c0.26-3.166,0.367-6.346,0.458-9.522c0.043-1.527-0.076-3.063-0.169-4.591c-0.051-0.82-0.178-1.638-0.322-2.448
		c-0.043-0.25-0.26-0.469-0.439-0.772c0.865-0.847-0.84-0.94-0.65-1.723c0.203-0.014,0.416-0.026,0.63-0.04
		c1.026-0.07,2.058-0.105,3.077-0.229c0.333-0.042,0.742-0.242,0.935-0.504C287.661,38.331,286.83,36.057,285.529,35.811z
		 M239.137,38.354c0.021-0.388,0.091-0.788,0.225-1.151c0.971-2.624,1.952-5.243,2.968-7.85c0.082-0.212,0.426-0.434,0.664-0.456
		c1.396-0.126,2.797-0.249,4.199-0.275c4.113-0.07,8.228-0.163,12.342-0.182v0.012c3.648,0.029,7.297,0.106,10.945,0.17
		c1.402,0.026,2.803,0.149,4.199,0.275c0.24,0.022,0.581,0.244,0.664,0.456c1.015,2.606,1.997,5.226,2.967,7.85
		c0.135,0.363,0.205,0.764,0.225,1.151c0.05,0.935-0.506,1.331-1.416,1.157c-1.134-0.215-2.278-0.457-3.426-0.503
		c-3.592-0.141-7.187-0.197-10.78-0.283c-0.847-0.02-1.696-0.05-2.542-0.025c-0.278,0.009-0.557,0.02-0.836,0.028v0.048
		c-0.744-0.026-1.488-0.053-2.233-0.076c-0.845-0.024-1.694,0.006-2.541,0.025c-3.594,0.086-7.188,0.143-10.78,0.283
		c-1.146,0.046-2.292,0.288-3.426,0.503C239.643,39.685,239.089,39.288,239.137,38.354z M270.883,39.548
		c-0.003,0.054-0.005,0.107-0.007,0.159c-1.796-0.069-3.592-0.138-5.388-0.209c-0.001-0.078-0.003-0.156-0.004-0.235
		C267.284,39.358,269.083,39.452,270.883,39.548z M259.546,39.552c0,0.021,0,0.04,0,0.06c-0.004,0-0.008,0-0.012,0
		c-0.465,0-0.931,0-1.396,0c-0.004,0-0.008,0-0.012,0c0-0.02,0-0.039,0-0.06c0.004,0,0.008,0,0.012,0c0.466,0,0.932,0,1.396,0
		C259.538,39.552,259.542,39.552,259.546,39.552z M252.188,39.263c-0.001,0.079-0.003,0.157-0.003,0.235
		c-1.796,0.071-3.592,0.14-5.389,0.209c-0.002-0.052-0.004-0.105-0.007-0.159C248.589,39.452,250.388,39.358,252.188,39.263z
		 M243.371,57.774c-0.226,0.713-0.746,0.964-1.46,0.954c-1.312-0.019-2.627-0.014-3.939-0.021c-0.837-0.003-1.156-0.289-1.167-1.129
		c-0.007-0.545,0.028-1.096,0.103-1.636c0.097-0.699,0.438-0.977,1.16-0.987c1.051-0.012,2.102-0.004,3.152-0.004
		c0.959,0,1.918,0,3.037,0C243.941,55.961,243.658,56.869,243.371,57.774z M244.345,49.857c-1.511-0.065-3.023-0.114-4.529-0.237
		c-1.213-0.101-2.419-0.304-3.751-0.479c0.116-1.167,0.185-2.192,0.331-3.207c0.104-0.726,0.334-0.859,1.028-0.718
		c2.075,0.422,4.152,0.832,6.22,1.291c1.141,0.253,2.262,0.593,3.39,0.894C246.474,49.45,245.947,49.925,244.345,49.857z
		 M259.534,53.143v-0.002c-4.14,0.031-8.293-0.124-12.505-0.495c0.761-1.578,1.466-3.029,2.157-4.484
		c0.25-0.523,0.648-0.796,1.224-0.841c0.479-0.038,0.957-0.143,1.437-0.148c2.562-0.033,5.125-0.09,7.688-0.099v0.011
		c2.097,0.02,4.194,0.062,6.291,0.088c0.479,0.006,0.957,0.11,1.438,0.148c0.575,0.045,0.973,0.317,1.223,0.841
		c0.692,1.455,1.396,2.906,2.158,4.484C266.904,52.974,263.212,53.134,259.534,53.143z M279.701,58.708
		c-1.314,0.007-2.627,0.002-3.94,0.021c-0.713,0.01-1.234-0.241-1.46-0.954c-0.287-0.905-0.57-1.813-0.886-2.822
		c1.119,0,2.078,0,3.037,0c1.051,0,2.102-0.008,3.152,0.004c0.723,0.011,1.062,0.288,1.16,0.987c0.074,0.54,0.109,1.091,0.102,1.636
		C280.856,58.419,280.537,58.705,279.701,58.708z M277.856,49.62c-1.507,0.123-3.02,0.172-4.529,0.237
		c-1.603,0.067-2.13-0.407-2.688-2.456c1.128-0.301,2.249-0.641,3.39-0.894c2.066-0.459,4.145-0.869,6.221-1.291
		c0.692-0.142,0.924-0.008,1.027,0.718c0.146,1.015,0.215,2.04,0.331,3.207C280.275,49.316,279.069,49.52,277.856,49.62z"/>
	<path fill="#FFFFFF" d="M283.665,59.132c-0.152,0.405-0.217,0.812-0.286,1.218c-0.108,0.634-0.424,1.051-1.124,1.051
		c-1.069,0.001-2.137,0.001-3.205,0.001c0.037-0.073,0.074-0.146,0.111-0.219c-0.184-0.157-0.357-0.434-0.553-0.449
		c-0.693-0.055-1.395-0.021-2.172-0.021c0,1.536-0.02,2.98,0.008,4.424c0.015,0.722,0.52,1.217,1.281,1.232
		c1.554,0.031,3.109,0.035,4.663,0.001c0.825-0.017,1.269-0.533,1.275-1.354c0.006-0.768,0.001-1.535,0.001-2.303
		C283.665,61.52,283.665,60.326,283.665,59.132z"/>
	<path fill="#FFFFFF" d="M239.063,60.733c-0.195,0.016-0.369,0.292-0.553,0.449c0.037,0.072,0.074,0.146,0.111,0.219
		c-1.068,0-2.137,0-3.205-0.001c-0.7,0-1.016-0.417-1.124-1.051c-0.069-0.406-0.135-0.812-0.287-1.218c0,1.194,0,2.388,0,3.581
		c0,0.768-0.005,1.535,0.001,2.303c0.007,0.82,0.45,1.337,1.275,1.354c1.555,0.034,3.11,0.03,4.664-0.001
		c0.761-0.016,1.267-0.511,1.28-1.232c0.028-1.443,0.009-2.888,0.009-4.424C240.459,60.712,239.758,60.679,239.063,60.733z"/>
</g>
<g opacity="0.8">
	<path fill="#FFFFFF" d="M180.529,35.811c-1.045-0.198-2.131-0.185-3.198-0.26c-0.684-0.047-1.084,0.298-1.207,0.947
		c-0.104,0.551-0.162,1.112-0.261,1.817c-0.157-0.363-0.266-0.596-0.359-0.832c-1.269-3.199-2.698-6.317-4.476-9.272
		c-0.703-1.167-1.583-1.914-3.053-1.902c-0.652,0.006-1.31-0.181-1.996-0.199c-2.781-0.071-5.56-0.359-8.34-0.393
		c-1.268-0.016-2.535-0.016-3.804-0.004c-1.269-0.012-2.536-0.012-3.804,0.004c-2.781,0.033-5.559,0.321-8.34,0.393
		c-0.687,0.019-1.344,0.205-1.996,0.199c-1.47-0.012-2.35,0.735-3.053,1.902c-1.777,2.955-3.207,6.073-4.476,9.272
		c-0.094,0.236-0.202,0.469-0.36,0.832c-0.098-0.705-0.155-1.267-0.26-1.817c-0.123-0.649-0.523-0.994-1.207-0.947
		c-1.068,0.075-2.154,0.062-3.199,0.26c-1.301,0.246-2.131,2.521-1.35,3.589c0.192,0.262,0.602,0.462,0.936,0.504
		c1.02,0.124,2.051,0.159,3.078,0.229c0.213,0.014,0.426,0.026,0.629,0.04c0.19,0.782-1.516,0.876-0.65,1.723
		c-0.18,0.304-0.396,0.522-0.44,0.772c-0.145,0.811-0.271,1.628-0.321,2.448c-0.094,1.527-0.213,3.063-0.168,4.591
		c0.09,3.177,0.196,6.356,0.457,9.522c0.167,2.035,0.203,2.03,2.221,2.042c0.351,0.001,0.701-0.016,1.053-0.028
		c0.377-0.013,0.768,0.071,0.951-0.451c0.049-0.141,0.451-0.214,0.693-0.22c1.887-0.051,3.772-0.107,5.658-0.108
		c4.417-0.001,8.834,0.001,13.25,0.004l0,0c0.232,0,0.466,0,0.698,0c0.233,0,0.466,0,0.698,0l0,0
		c4.416-0.003,8.834-0.005,13.25-0.004c1.886,0.001,3.771,0.058,5.657,0.108c0.243,0.006,0.646,0.079,0.694,0.22
		c0.184,0.522,0.575,0.438,0.951,0.451c0.351,0.013,0.702,0.029,1.053,0.028c2.018-0.012,2.054-0.007,2.221-2.042
		c0.26-3.166,0.367-6.346,0.458-9.522c0.043-1.527-0.076-3.063-0.169-4.591c-0.051-0.82-0.178-1.638-0.322-2.448
		c-0.043-0.25-0.26-0.469-0.439-0.772c0.865-0.847-0.84-0.94-0.65-1.723c0.203-0.014,0.416-0.026,0.63-0.04
		c1.026-0.07,2.058-0.105,3.077-0.229c0.333-0.042,0.742-0.242,0.935-0.504C182.661,38.331,181.83,36.057,180.529,35.811z
		 M134.137,38.354c0.021-0.388,0.091-0.788,0.225-1.151c0.971-2.624,1.952-5.243,2.968-7.85c0.082-0.212,0.426-0.434,0.664-0.456
		c1.396-0.126,2.797-0.249,4.199-0.275c4.113-0.07,8.228-0.163,12.342-0.182v0.012c3.648,0.029,7.297,0.106,10.945,0.17
		c1.402,0.026,2.803,0.149,4.199,0.275c0.24,0.022,0.581,0.244,0.664,0.456c1.015,2.606,1.997,5.226,2.967,7.85
		c0.135,0.363,0.205,0.764,0.225,1.151c0.05,0.935-0.506,1.331-1.416,1.157c-1.134-0.215-2.278-0.457-3.426-0.503
		c-3.592-0.141-7.187-0.197-10.78-0.283c-0.847-0.02-1.696-0.05-2.542-0.025c-0.278,0.009-0.557,0.02-0.836,0.028v0.048
		c-0.744-0.026-1.488-0.053-2.233-0.076c-0.845-0.024-1.694,0.006-2.541,0.025c-3.594,0.086-7.188,0.143-10.78,0.283
		c-1.146,0.046-2.292,0.288-3.426,0.503C134.643,39.685,134.089,39.288,134.137,38.354z M165.883,39.548
		c-0.003,0.054-0.005,0.107-0.007,0.159c-1.796-0.069-3.592-0.138-5.388-0.209c-0.001-0.078-0.003-0.156-0.004-0.235
		C162.284,39.358,164.083,39.452,165.883,39.548z M154.546,39.552c0,0.021,0,0.04,0,0.06c-0.004,0-0.008,0-0.012,0
		c-0.465,0-0.931,0-1.396,0c-0.004,0-0.008,0-0.012,0c0-0.02,0-0.039,0-0.06c0.004,0,0.008,0,0.012,0c0.466,0,0.932,0,1.396,0
		C154.538,39.552,154.542,39.552,154.546,39.552z M147.188,39.263c-0.001,0.079-0.003,0.157-0.003,0.235
		c-1.796,0.071-3.592,0.14-5.389,0.209c-0.002-0.052-0.004-0.105-0.007-0.159C143.589,39.452,145.388,39.358,147.188,39.263z
		 M138.371,57.774c-0.226,0.713-0.746,0.964-1.46,0.954c-1.312-0.019-2.627-0.014-3.939-0.021c-0.837-0.003-1.156-0.289-1.167-1.129
		c-0.007-0.545,0.028-1.096,0.103-1.636c0.097-0.699,0.438-0.977,1.16-0.987c1.051-0.012,2.102-0.004,3.152-0.004
		c0.959,0,1.918,0,3.037,0C138.941,55.961,138.658,56.869,138.371,57.774z M139.345,49.857c-1.511-0.065-3.023-0.114-4.529-0.237
		c-1.213-0.101-2.419-0.304-3.751-0.479c0.116-1.167,0.185-2.192,0.331-3.207c0.104-0.726,0.334-0.859,1.028-0.718
		c2.075,0.422,4.152,0.832,6.22,1.291c1.141,0.253,2.262,0.593,3.39,0.894C141.474,49.45,140.947,49.925,139.345,49.857z
		 M154.534,53.143v-0.002c-4.14,0.031-8.293-0.124-12.505-0.495c0.761-1.578,1.466-3.029,2.157-4.484
		c0.25-0.523,0.648-0.796,1.224-0.841c0.479-0.038,0.957-0.143,1.437-0.148c2.562-0.033,5.125-0.09,7.688-0.099v0.011
		c2.097,0.02,4.194,0.062,6.291,0.088c0.479,0.006,0.957,0.11,1.438,0.148c0.575,0.045,0.973,0.317,1.223,0.841
		c0.692,1.455,1.396,2.906,2.158,4.484C161.904,52.974,158.212,53.134,154.534,53.143z M174.701,58.708
		c-1.314,0.007-2.627,0.002-3.94,0.021c-0.713,0.01-1.234-0.241-1.46-0.954c-0.287-0.905-0.57-1.813-0.886-2.822
		c1.119,0,2.078,0,3.037,0c1.051,0,2.102-0.008,3.152,0.004c0.723,0.011,1.062,0.288,1.16,0.987c0.074,0.54,0.109,1.091,0.102,1.636
		C175.856,58.419,175.537,58.705,174.701,58.708z M172.856,49.62c-1.507,0.123-3.02,0.172-4.529,0.237
		c-1.603,0.067-2.13-0.407-2.688-2.456c1.128-0.301,2.249-0.641,3.39-0.894c2.066-0.459,4.145-0.869,6.221-1.291
		c0.692-0.142,0.924-0.008,1.027,0.718c0.146,1.015,0.215,2.04,0.331,3.207C175.275,49.316,174.069,49.52,172.856,49.62z"/>
	<path fill="#FFFFFF" d="M178.665,59.132c-0.152,0.405-0.217,0.812-0.286,1.218c-0.108,0.634-0.424,1.051-1.124,1.051
		c-1.069,0.001-2.137,0.001-3.205,0.001c0.037-0.073,0.074-0.146,0.111-0.219c-0.184-0.157-0.357-0.434-0.553-0.449
		c-0.693-0.055-1.395-0.021-2.172-0.021c0,1.536-0.02,2.98,0.008,4.424c0.015,0.722,0.52,1.217,1.281,1.232
		c1.554,0.031,3.109,0.035,4.663,0.001c0.825-0.017,1.269-0.533,1.275-1.354c0.006-0.768,0.001-1.535,0.001-2.303
		C178.665,61.52,178.665,60.326,178.665,59.132z"/>
	<path fill="#FFFFFF" d="M134.063,60.733c-0.195,0.016-0.369,0.292-0.553,0.449c0.037,0.072,0.074,0.146,0.111,0.219
		c-1.068,0-2.137,0-3.205-0.001c-0.7,0-1.016-0.417-1.124-1.051c-0.069-0.406-0.135-0.812-0.287-1.218c0,1.194,0,2.388,0,3.581
		c0,0.768-0.005,1.535,0.001,2.303c0.007,0.82,0.45,1.337,1.275,1.354c1.555,0.034,3.11,0.03,4.664-0.001
		c0.761-0.016,1.267-0.511,1.28-1.232c0.028-1.443,0.009-2.888,0.009-4.424C135.459,60.712,134.758,60.679,134.063,60.733z"/>
</g>
<g opacity="0.8">
	<path fill="#FFFFFF" d="M78.529,35.811c-1.045-0.198-2.131-0.185-3.198-0.26c-0.684-0.047-1.084,0.298-1.207,0.947
		c-0.104,0.551-0.162,1.112-0.261,1.817c-0.157-0.363-0.266-0.596-0.359-0.832c-1.269-3.199-2.698-6.317-4.476-9.272
		c-0.703-1.167-1.583-1.914-3.053-1.902c-0.652,0.006-1.31-0.181-1.996-0.199c-2.781-0.071-5.56-0.359-8.34-0.393
		c-1.268-0.016-2.535-0.016-3.804-0.004c-1.269-0.012-2.536-0.012-3.804,0.004c-2.781,0.033-5.559,0.321-8.34,0.393
		c-0.687,0.019-1.344,0.205-1.996,0.199c-1.47-0.012-2.35,0.735-3.053,1.902c-1.777,2.955-3.207,6.073-4.476,9.272
		c-0.094,0.236-0.202,0.469-0.36,0.832c-0.098-0.705-0.155-1.267-0.26-1.817c-0.123-0.649-0.523-0.994-1.207-0.947
		c-1.068,0.075-2.154,0.062-3.199,0.26c-1.301,0.246-2.131,2.521-1.35,3.589c0.192,0.262,0.602,0.462,0.936,0.504
		c1.02,0.124,2.051,0.159,3.078,0.229c0.213,0.014,0.426,0.026,0.629,0.04c0.19,0.782-1.516,0.876-0.65,1.723
		c-0.18,0.304-0.396,0.522-0.44,0.772c-0.145,0.811-0.271,1.628-0.321,2.448c-0.094,1.527-0.213,3.063-0.168,4.591
		c0.09,3.177,0.196,6.356,0.457,9.522c0.167,2.035,0.203,2.03,2.221,2.042c0.351,0.001,0.701-0.016,1.053-0.028
		c0.377-0.013,0.768,0.071,0.951-0.451c0.049-0.141,0.451-0.214,0.693-0.22c1.887-0.051,3.772-0.107,5.658-0.108
		c4.417-0.001,8.834,0.001,13.25,0.004l0,0c0.232,0,0.466,0,0.698,0c0.233,0,0.466,0,0.698,0l0,0
		c4.416-0.003,8.834-0.005,13.25-0.004c1.886,0.001,3.771,0.058,5.657,0.108c0.243,0.006,0.646,0.079,0.694,0.22
		c0.184,0.522,0.575,0.438,0.951,0.451c0.351,0.013,0.702,0.029,1.053,0.028c2.018-0.012,2.054-0.007,2.221-2.042
		c0.26-3.166,0.367-6.346,0.458-9.522c0.043-1.527-0.076-3.063-0.169-4.591c-0.051-0.82-0.178-1.638-0.322-2.448
		c-0.043-0.25-0.26-0.469-0.439-0.772c0.865-0.847-0.84-0.94-0.65-1.723c0.203-0.014,0.416-0.026,0.63-0.04
		c1.026-0.07,2.058-0.105,3.077-0.229c0.333-0.042,0.742-0.242,0.935-0.504C80.661,38.331,79.83,36.057,78.529,35.811z
		 M32.137,38.354c0.021-0.388,0.091-0.788,0.225-1.151c0.971-2.624,1.952-5.243,2.968-7.85c0.082-0.212,0.426-0.434,0.664-0.456
		c1.396-0.126,2.797-0.249,4.199-0.275c4.113-0.07,8.228-0.163,12.342-0.182v0.012c3.648,0.029,7.297,0.106,10.945,0.17
		c1.402,0.026,2.803,0.149,4.199,0.275c0.24,0.022,0.581,0.244,0.664,0.456c1.015,2.606,1.997,5.226,2.967,7.85
		c0.135,0.363,0.205,0.764,0.225,1.151c0.05,0.935-0.506,1.331-1.416,1.157c-1.134-0.215-2.278-0.457-3.426-0.503
		c-3.592-0.141-7.187-0.197-10.78-0.283c-0.847-0.02-1.696-0.05-2.542-0.025c-0.278,0.009-0.557,0.02-0.836,0.028v0.048
		c-0.744-0.026-1.488-0.053-2.233-0.076c-0.845-0.024-1.694,0.006-2.541,0.025c-3.594,0.086-7.188,0.143-10.78,0.283
		c-1.146,0.046-2.292,0.288-3.426,0.503C32.643,39.685,32.089,39.288,32.137,38.354z M63.883,39.548
		c-0.003,0.054-0.005,0.107-0.007,0.159c-1.796-0.069-3.592-0.138-5.388-0.209c-0.001-0.078-0.003-0.156-0.004-0.235
		C60.284,39.358,62.083,39.452,63.883,39.548z M52.546,39.552c0,0.021,0,0.04,0,0.06c-0.004,0-0.008,0-0.012,0
		c-0.465,0-0.931,0-1.396,0c-0.004,0-0.008,0-0.012,0c0-0.02,0-0.039,0-0.06c0.004,0,0.008,0,0.012,0c0.466,0,0.932,0,1.396,0
		C52.538,39.552,52.542,39.552,52.546,39.552z M45.188,39.263c-0.001,0.079-0.003,0.157-0.003,0.235
		c-1.796,0.071-3.592,0.14-5.389,0.209c-0.002-0.052-0.004-0.105-0.007-0.159C41.589,39.452,43.388,39.358,45.188,39.263z
		 M36.371,57.774c-0.226,0.713-0.746,0.964-1.46,0.954c-1.312-0.019-2.627-0.014-3.939-0.021c-0.837-0.003-1.156-0.289-1.167-1.129
		c-0.007-0.545,0.028-1.096,0.103-1.636c0.097-0.699,0.438-0.977,1.16-0.987c1.051-0.012,2.102-0.004,3.152-0.004
		c0.959,0,1.918,0,3.037,0C36.941,55.961,36.658,56.869,36.371,57.774z M37.345,49.857c-1.511-0.065-3.023-0.114-4.529-0.237
		c-1.213-0.101-2.419-0.304-3.751-0.479c0.116-1.167,0.185-2.192,0.331-3.207c0.104-0.726,0.334-0.859,1.028-0.718
		c2.075,0.422,4.152,0.832,6.22,1.291c1.141,0.253,2.262,0.593,3.39,0.894C39.474,49.45,38.947,49.925,37.345,49.857z
		 M52.534,53.143v-0.002c-4.14,0.031-8.293-0.124-12.505-0.495c0.761-1.578,1.466-3.029,2.157-4.484
		c0.25-0.523,0.648-0.796,1.224-0.841c0.479-0.038,0.957-0.143,1.437-0.148c2.562-0.033,5.125-0.09,7.688-0.099v0.011
		c2.097,0.02,4.194,0.062,6.291,0.088c0.479,0.006,0.957,0.11,1.438,0.148c0.575,0.045,0.973,0.317,1.223,0.841
		c0.692,1.455,1.396,2.906,2.158,4.484C59.904,52.974,56.212,53.134,52.534,53.143z M72.701,58.708
		c-1.314,0.007-2.627,0.002-3.94,0.021c-0.713,0.01-1.234-0.241-1.46-0.954c-0.287-0.905-0.57-1.813-0.886-2.822
		c1.119,0,2.078,0,3.037,0c1.051,0,2.102-0.008,3.152,0.004c0.723,0.011,1.062,0.288,1.16,0.987c0.074,0.54,0.109,1.091,0.102,1.636
		C73.856,58.419,73.537,58.705,72.701,58.708z M70.856,49.62c-1.507,0.123-3.02,0.172-4.529,0.237
		c-1.603,0.067-2.13-0.407-2.688-2.456c1.128-0.301,2.249-0.641,3.39-0.894c2.066-0.459,4.145-0.869,6.221-1.291
		c0.692-0.142,0.924-0.008,1.027,0.718c0.146,1.015,0.215,2.04,0.331,3.207C73.275,49.316,72.069,49.52,70.856,49.62z"/>
	<path fill="#FFFFFF" d="M76.665,59.132c-0.152,0.405-0.217,0.812-0.286,1.218c-0.108,0.634-0.424,1.051-1.124,1.051
		c-1.069,0.001-2.137,0.001-3.205,0.001c0.037-0.073,0.074-0.146,0.111-0.219c-0.184-0.157-0.357-0.434-0.553-0.449
		c-0.693-0.055-1.395-0.021-2.172-0.021c0,1.536-0.02,2.98,0.008,4.424c0.015,0.722,0.52,1.217,1.281,1.232
		c1.554,0.031,3.109,0.035,4.663,0.001c0.825-0.017,1.269-0.533,1.275-1.354c0.006-0.768,0.001-1.535,0.001-2.303
		C76.665,61.52,76.665,60.326,76.665,59.132z"/>
	<path fill="#FFFFFF" d="M32.063,60.733c-0.195,0.016-0.369,0.292-0.553,0.449c0.037,0.072,0.074,0.146,0.111,0.219
		c-1.068,0-2.137,0-3.205-0.001c-0.7,0-1.016-0.417-1.124-1.051c-0.069-0.406-0.135-0.812-0.287-1.218c0,1.194,0,2.388,0,3.581
		c0,0.768-0.005,1.535,0.001,2.303c0.007,0.82,0.45,1.337,1.275,1.354c1.555,0.034,3.11,0.03,4.664-0.001
		c0.761-0.016,1.267-0.511,1.28-1.232c0.028-1.443,0.009-2.888,0.009-4.424C33.459,60.712,32.758,60.679,32.063,60.733z"/>
</g>
<path fill="#1A4D66" d="M293.458,161.905H17.855c-6.336,0-11.473,6.424-11.473,14.349v34.492c0,7.926,5.137,14.352,11.473,14.352
	h152.973h46.144h76.486c6.336,0,11.473-6.426,11.473-14.352v-34.492C304.931,168.329,299.794,161.905,293.458,161.905z"/>
<g>
	<path fill="#FFFFFF" d="M25.018,197.357l-3.264,6.865h-4.441l11.326-23.582h4.08l11.326,23.582h-4.598l-3.185-6.865H25.018z
		 M34.75,194.035l-4.08-8.956l-4.161,8.956H34.75z"/>
	<path fill="#FFFFFF" d="M63.694,204.223h-3.781v-1.992c-0.784,0.81-1.664,1.412-2.638,1.806c-0.976,0.394-2.066,0.591-3.274,0.591
		c-2.76,0-4.897-0.695-6.41-2.089c-1.512-1.393-2.27-3.353-2.27-5.879v-10.253h3.942v9.328c0,1.923,0.418,3.364,1.253,4.328
		c0.836,0.959,2.09,1.44,3.763,1.44c1.036,0,1.958-0.197,2.768-0.593c0.809-0.395,1.453-0.958,1.931-1.691
		c0.292-0.454,0.5-0.994,0.625-1.62c0.127-0.627,0.19-1.636,0.19-3.03v-8.162h3.901V204.223z"/>
	<polygon fill="#FFFFFF" points="69.805,204.223 69.805,189.32 66.699,189.32 66.699,186.406 69.805,186.406 69.805,180.641 
		73.728,180.641 73.728,186.406 76.833,186.406 76.833,189.32 73.728,189.32 73.728,204.223 	"/>
	<path fill="#FFFFFF" d="M78.406,195.332c0-1.264,0.261-2.443,0.785-3.539c0.524-1.098,1.298-2.082,2.319-2.957
		c1.102-0.961,2.342-1.701,3.724-2.221c1.378-0.518,2.812-0.774,4.297-0.774c1.593,0,3.069,0.231,4.429,0.694
		c1.361,0.467,2.591,1.15,3.693,2.059c1.075,0.896,1.9,1.906,2.479,3.029c0.576,1.123,0.865,2.281,0.865,3.482
		c0,1.22-0.27,2.407-0.808,3.561c-0.537,1.158-1.289,2.166-2.258,3.03c-1.113,0.993-2.366,1.747-3.753,2.259
		c-1.386,0.513-2.863,0.77-4.428,0.77c-1.606,0-3.084-0.232-4.438-0.706c-1.353-0.468-2.568-1.161-3.643-2.08
		c-1.022-0.874-1.822-1.892-2.4-3.052C78.694,197.727,78.406,196.541,78.406,195.332 M82.485,195.299
		c0,1.781,0.693,3.266,2.079,4.454c1.389,1.187,3.117,1.78,5.187,1.78c2.031,0,3.733-0.595,5.105-1.79
		c1.374-1.192,2.06-2.684,2.06-4.479c0-1.802-0.687-3.291-2.06-4.471c-1.373-1.173-3.088-1.764-5.145-1.764
		c-2.043,0-3.759,0.597-5.148,1.79C83.178,192.015,82.485,193.506,82.485,195.299"/>
	<path fill="#FFFFFF" d="M122.078,204.223v-2.186c-1.009,0.852-2.135,1.498-3.374,1.936c-1.241,0.436-2.566,0.654-3.973,0.654
		c-3.291,0-6.024-0.893-8.201-2.68c-2.176-1.784-3.264-4.025-3.264-6.714c0-1.253,0.271-2.438,0.816-3.562
		c0.543-1.125,1.318-2.113,2.328-2.965c1.103-0.94,2.306-1.633,3.612-2.082c1.308-0.447,2.798-0.672,4.469-0.672
		c1.486,0,2.864,0.217,4.13,0.648c1.267,0.431,2.433,1.086,3.493,1.959v-7.92h3.941v23.582H122.078z M107.348,195.203
		c0,1.802,0.734,3.314,2.199,4.532c1.468,1.222,3.261,1.831,5.385,1.831c1.937,0,3.646-0.611,5.126-1.839
		c1.479-1.226,2.219-2.659,2.219-4.3c0-1.748-0.733-3.247-2.201-4.494c-1.465-1.248-3.208-1.871-5.223-1.871
		c-2.071,0-3.839,0.596-5.307,1.781C108.082,192.033,107.348,193.485,107.348,195.203"/>
	<path fill="#FFFFFF" d="M133.564,196.496c0.332,1.492,1.157,2.696,2.478,3.619c1.32,0.926,2.889,1.388,4.708,1.388
		c1.299,0,2.484-0.257,3.554-0.763c1.067-0.506,1.92-1.225,2.558-2.154h4.439c-1.008,1.978-2.419,3.489-4.23,4.537
		c-1.811,1.049-3.921,1.57-6.32,1.57c-1.619,0-3.1-0.232-4.439-0.699c-1.342-0.463-2.555-1.158-3.644-2.086
		c-1.022-0.877-1.82-1.895-2.397-3.055c-0.577-1.161-0.866-2.348-0.866-3.555c0-1.253,0.262-2.424,0.786-3.515
		s1.296-2.085,2.318-2.981c1.086-0.971,2.316-1.703,3.683-2.193c1.367-0.49,2.859-0.736,4.478-0.736
		c1.925,0,3.713,0.363,5.366,1.092c1.651,0.73,3.016,1.746,4.091,3.055c0.636,0.809,1.106,1.697,1.413,2.664
		c0.305,0.967,0.458,2.069,0.458,3.312v0.501H133.564z M147.677,193.615c-0.491-1.469-1.34-2.606-2.548-3.41
		c-1.208-0.806-2.654-1.206-4.339-1.206c-1.726,0-3.222,0.412-4.49,1.239c-1.267,0.826-2.14,1.951-2.615,3.377H147.677z"/>
	<path fill="#FFFFFF" d="M173.117,204.223v-2.186c-1.01,0.852-2.133,1.498-3.376,1.936c-1.241,0.436-2.562,0.654-3.97,0.654
		c-3.292,0-6.026-0.893-8.201-2.68c-2.176-1.784-3.264-4.025-3.264-6.714c0-1.253,0.271-2.438,0.817-3.562
		c0.542-1.125,1.319-2.113,2.329-2.965c1.101-0.94,2.305-1.633,3.612-2.082c1.308-0.447,2.797-0.672,4.47-0.672
		c1.498,0,2.88,0.217,4.139,0.648c1.261,0.431,2.411,1.086,3.445,1.959v-2.154h3.981v17.816H173.117z M158.387,195.203
		c0,1.802,0.733,3.314,2.2,4.532c1.465,1.222,3.262,1.831,5.383,1.831c1.938,0,3.646-0.611,5.126-1.839
		c1.479-1.226,2.219-2.659,2.219-4.3c0-1.748-0.733-3.247-2.198-4.494c-1.469-1.248-3.209-1.871-5.226-1.871
		c-2.072,0-3.839,0.596-5.304,1.781C159.12,192.033,158.387,193.485,158.387,195.203"/>
	<rect x="181.675" y="180.641" fill="#FFFFFF" width="3.902" height="23.582"/>
	<path fill="#FFFFFF" d="M193.201,196.496c0.333,1.492,1.159,2.696,2.479,3.619c1.32,0.926,2.892,1.388,4.709,1.388
		c1.299,0,2.484-0.257,3.554-0.763c1.066-0.506,1.921-1.225,2.557-2.154h4.438c-1.007,1.978-2.417,3.489-4.229,4.537
		c-1.812,1.049-3.918,1.57-6.319,1.57c-1.621,0-3.1-0.232-4.441-0.699c-1.338-0.463-2.552-1.158-3.643-2.086
		c-1.021-0.877-1.821-1.895-2.397-3.055c-0.578-1.161-0.865-2.348-0.865-3.555c0-1.253,0.26-2.424,0.784-3.515
		c0.526-1.091,1.297-2.085,2.32-2.981c1.087-0.971,2.315-1.703,3.683-2.193c1.367-0.49,2.858-0.736,4.478-0.736
		c1.924,0,3.713,0.363,5.366,1.092c1.652,0.73,3.016,1.748,4.089,3.055c0.638,0.809,1.109,1.697,1.414,2.664
		c0.307,0.967,0.459,2.069,0.459,3.312v0.501H193.201z M207.315,193.615c-0.492-1.469-1.342-2.606-2.549-3.41
		c-1.209-0.806-2.654-1.206-4.34-1.206c-1.726,0-3.222,0.412-4.49,1.239c-1.266,0.826-2.138,1.951-2.614,3.377H207.315z"/>
	<path fill="#FFFFFF" d="M219.04,204.223h-3.942v-17.816h3.704v2.059c0.648-0.789,1.394-1.376,2.238-1.759
		c0.843-0.384,1.821-0.581,2.936-0.591v3.354c-1.766,0.107-3.028,0.531-3.792,1.27c-0.764,0.742-1.144,1.931-1.144,3.573V204.223z"
		/>
	<path fill="#FFFFFF" d="M225.331,198.457h3.7c0,0.939,0.323,1.715,0.967,2.323c0.642,0.61,1.448,0.916,2.416,0.916
		c0.917,0,1.672-0.229,2.262-0.689c0.59-0.456,0.885-1.044,0.885-1.758c0-0.625-0.209-1.151-0.628-1.585
		c-0.416-0.434-1.09-0.797-2.019-1.102c-0.319-0.107-0.771-0.25-1.354-0.42c-1.553-0.479-2.541-0.857-2.966-1.135
		c-0.783-0.508-1.361-1.084-1.732-1.727c-0.37-0.641-0.558-1.385-0.558-2.227c0-1.445,0.623-2.678,1.863-3.691
		c1.239-1.017,2.757-1.523,4.546-1.523c1.871,0,3.358,0.445,4.46,1.336s1.704,2.141,1.811,3.75h-3.781
		c-0.065-0.658-0.331-1.173-0.797-1.539c-0.463-0.366-1.087-0.551-1.869-0.551c-0.703,0-1.292,0.197-1.763,0.592
		c-0.47,0.395-0.706,0.883-0.706,1.465c0,0.994,1.062,1.808,3.186,2.445c0.596,0.186,1.067,0.33,1.414,0.439
		c1.668,0.549,2.86,1.234,3.57,2.057c0.711,0.82,1.064,1.914,1.064,3.286c0,1.599-0.664,2.929-1.988,3.985
		c-1.328,1.059-3,1.588-5.018,1.588c-2.029,0-3.668-0.559-4.916-1.668C226.132,201.912,225.447,200.39,225.331,198.457"/>
	<rect x="245.581" y="199.173" fill="#FFFFFF" width="5.086" height="5.443"/>
	<g>
		<defs>
			<path id="SVGID_1_" d="M252.966,194.205c0,8.673,9.02,15.707,20.14,15.707c11.126,0,20.144-7.034,20.144-15.707
				c0-8.674-9.018-15.706-20.144-15.706C261.985,178.499,252.966,185.531,252.966,194.205"/>
		</defs>
		<use xlink:href="#SVGID_1_"  overflow="visible" fill="#FFFFFF"/>
		<clipPath id="SVGID_2_">
			<use xlink:href="#SVGID_1_"  overflow="visible"/>
		</clipPath>
		<rect x="252.966" y="178.499" clip-path="url(#SVGID_2_)" fill="#FFFFFF" width="40.283" height="31.413"/>
	</g>
	<path fill="#1A4D66" d="M272.753,189.08c-1.06-0.51-2.132-0.674-3.039-0.676c-1.26-0.001-2.377,0.289-3.314,0.744l-0.034-0.475
		h-5.259l0.142,1.607c0.081,0.92,0.11,1.879,0.11,3.082v10.131h5.508v-8.611c0-0.109,0.01-0.217,0.023-0.3l0.032-0.137l0.019-0.039
		l0.012-0.04c0.102-0.287,0.332-0.602,0.668-0.831c0.335-0.231,0.756-0.382,1.271-0.382c0.418,0,0.695,0.068,0.881,0.15
		c0.271,0.127,0.407,0.262,0.557,0.557c0.143,0.292,0.243,0.754,0.242,1.316v8.316h5.51v-8.562c0.002-1.191-0.22-2.236-0.627-3.117
		C274.845,190.485,273.806,189.585,272.753,189.08z"/>
	<polygon fill="#1A4D66" points="278.198,183.135 278.198,184.616 278.198,203.494 283.705,203.494 283.705,183.135 	"/>
</g>
</svg>
